<?xml version="1.0" encoding="UTF-8" standalone="no"?>
<!DOCTYPE svg PUBLIC "-//W3C//DTD SVG 1.1//EN"
 "http://www.w3.org/Graphics/SVG/1.1/DTD/svg11.dtd">
<!-- Generated by graphviz version 2.40.1 (20161225.0304)
 -->
<!-- Title: UmlClassDiagram Pages: 1 -->
<svg width="1031pt" height="632pt"
 viewBox="0.00 0.00 1031.17 631.60" xmlns="http://www.w3.org/2000/svg" xmlns:xlink="http://www.w3.org/1999/xlink">
<g id="graph0" class="graph" transform="scale(1 1) rotate(0) translate(4 627.6)">
<title>UmlClassDiagram</title>
<polygon fill="#ffffff" stroke="transparent" points="-4,4 -4,-627.6 1027.1695,-627.6 1027.1695,4 -4,4"/>
<!-- 0 -->
<g id="node1" class="node">
<title>0</title>
<polygon fill="#f2f2f2" stroke="#000000" points="32.3022,-363.9 32.3022,-623.1 517.1762,-623.1 517.1762,-363.9 32.3022,-363.9"/>
<text text-anchor="middle" x="274.7392" y="-606.5" font-family="Times,serif" font-size="14.00" fill="#000000">&lt;&lt;Abstract&gt;&gt;</text>
<text text-anchor="middle" x="274.7392" y="-589.7" font-family="Times,serif" font-size="14.00" fill="#000000">Ownable</text>
<polyline fill="none" stroke="#000000" points="32.3022,-581.5 517.1762,-581.5 "/>
<text text-anchor="start" x="40.3022" y="-564.9" font-family="Times,serif" font-size="14.00" fill="#000000">Private:</text>
<text text-anchor="start" x="40.3022" y="-548.1" font-family="Times,serif" font-size="14.00" fill="#000000"> &#160;&#160;_owner: address</text>
<polyline fill="none" stroke="#000000" points="32.3022,-539.9 517.1762,-539.9 "/>
<text text-anchor="start" x="40.3022" y="-523.3" font-family="Times,serif" font-size="14.00" fill="#000000">Internal:</text>
<text text-anchor="start" x="40.3022" y="-506.5" font-family="Times,serif" font-size="14.00" fill="#000000"> &#160;&#160;&#160;_checkOwner()</text>
<text text-anchor="start" x="40.3022" y="-489.7" font-family="Times,serif" font-size="14.00" fill="#000000"> &#160;&#160;&#160;_transferOwnership(newOwner: address)</text>
<text text-anchor="start" x="40.3022" y="-472.9" font-family="Times,serif" font-size="14.00" fill="#000000">Public:</text>
<text text-anchor="start" x="40.3022" y="-456.1" font-family="Times,serif" font-size="14.00" fill="#000000"> &#160;&#160;&#160;&lt;&lt;event&gt;&gt; OwnershipTransferred(previousOwner: address, newOwner: address)</text>
<text text-anchor="start" x="40.3022" y="-439.3" font-family="Times,serif" font-size="14.00" fill="#000000"> &#160;&#160;&#160;&lt;&lt;modifier&gt;&gt; onlyOwner()</text>
<text text-anchor="start" x="40.3022" y="-422.5" font-family="Times,serif" font-size="14.00" fill="#000000"> &#160;&#160;&#160;constructor(owner_: address)</text>
<text text-anchor="start" x="40.3022" y="-405.7" font-family="Times,serif" font-size="14.00" fill="#000000"> &#160;&#160;&#160;owner(): address</text>
<text text-anchor="start" x="40.3022" y="-388.9" font-family="Times,serif" font-size="14.00" fill="#000000"> &#160;&#160;&#160;renounceOwnership()</text>
<text text-anchor="start" x="40.3022" y="-372.1" font-family="Times,serif" font-size="14.00" fill="#000000"> &#160;&#160;&#160;transferOwnership(newOwner: address)</text>
</g>
<!-- 1 -->
<g id="node2" class="node">
<title>1</title>
<polygon fill="#f2f2f2" stroke="#000000" points="535.3089,-439.5 535.3089,-547.5 770.1695,-547.5 770.1695,-439.5 535.3089,-439.5"/>
<text text-anchor="middle" x="652.7392" y="-530.9" font-family="Times,serif" font-size="14.00" fill="#000000">&lt;&lt;Interface&gt;&gt;</text>
<text text-anchor="middle" x="652.7392" y="-514.1" font-family="Times,serif" font-size="14.00" fill="#000000">IERC721</text>
<polyline fill="none" stroke="#000000" points="535.3089,-505.9 770.1695,-505.9 "/>
<text text-anchor="middle" x="652.7392" y="-489.3" font-family="Times,serif" font-size="14.00" fill="#000000"> </text>
<polyline fill="none" stroke="#000000" points="535.3089,-481.1 770.1695,-481.1 "/>
<text text-anchor="start" x="543.3089" y="-464.5" font-family="Times,serif" font-size="14.00" fill="#000000">External:</text>
<text text-anchor="start" x="543.3089" y="-447.7" font-family="Times,serif" font-size="14.00" fill="#000000"> &#160;&#160;&#160;&#160;balanceOf(owner: address): uint256</text>
</g>
<!-- 2 -->
<g id="node3" class="node">
<title>2</title>
<polygon fill="#f2f2f2" stroke="#000000" points="788.3089,-439.5 788.3089,-547.5 1023.1695,-547.5 1023.1695,-439.5 788.3089,-439.5"/>
<text text-anchor="middle" x="905.7392" y="-530.9" font-family="Times,serif" font-size="14.00" fill="#000000">&lt;&lt;Interface&gt;&gt;</text>
<text text-anchor="middle" x="905.7392" y="-514.1" font-family="Times,serif" font-size="14.00" fill="#000000">IERC20</text>
<polyline fill="none" stroke="#000000" points="788.3089,-505.9 1023.1695,-505.9 "/>
<text text-anchor="middle" x="905.7392" y="-489.3" font-family="Times,serif" font-size="14.00" fill="#000000"> </text>
<polyline fill="none" stroke="#000000" points="788.3089,-481.1 1023.1695,-481.1 "/>
<text text-anchor="start" x="796.3089" y="-464.5" font-family="Times,serif" font-size="14.00" fill="#000000">External:</text>
<text text-anchor="start" x="796.3089" y="-447.7" font-family="Times,serif" font-size="14.00" fill="#000000"> &#160;&#160;&#160;&#160;balanceOf(owner: address): uint256</text>
</g>
<!-- 3 -->
<g id="node4" class="node">
<title>3</title>
<polygon fill="#f2f2f2" stroke="#000000" points="567.8156,-109.7 567.8156,-217.7 839.6628,-217.7 839.6628,-109.7 567.8156,-109.7"/>
<text text-anchor="middle" x="703.7392" y="-201.1" font-family="Times,serif" font-size="14.00" fill="#000000">&lt;&lt;Interface&gt;&gt;</text>
<text text-anchor="middle" x="703.7392" y="-184.3" font-family="Times,serif" font-size="14.00" fill="#000000">IDiscountAuthority</text>
<polyline fill="none" stroke="#000000" points="567.8156,-176.1 839.6628,-176.1 "/>
<text text-anchor="middle" x="703.7392" y="-159.5" font-family="Times,serif" font-size="14.00" fill="#000000"> </text>
<polyline fill="none" stroke="#000000" points="567.8156,-151.3 839.6628,-151.3 "/>
<text text-anchor="start" x="575.8156" y="-134.7" font-family="Times,serif" font-size="14.00" fill="#000000">External:</text>
<text text-anchor="start" x="575.8156" y="-117.9" font-family="Times,serif" font-size="14.00" fill="#000000"> &#160;&#160;&#160;&#160;discountRatio(address): (uint256, uint256)</text>
</g>
<!-- 4 -->
<g id="node5" class="node">
<title>4</title>
<polygon fill="#f2f2f2" stroke="#000000" points="0,-.5 0,-326.9 549.4784,-326.9 549.4784,-.5 0,-.5"/>
<text text-anchor="middle" x="274.7392" y="-310.3" font-family="Times,serif" font-size="14.00" fill="#000000">X7100DiscountAuthority</text>
<polyline fill="none" stroke="#000000" points="0,-302.1 549.4784,-302.1 "/>
<text text-anchor="start" x="8" y="-285.5" font-family="Times,serif" font-size="14.00" fill="#000000">Public:</text>
<text text-anchor="start" x="8" y="-268.7" font-family="Times,serif" font-size="14.00" fill="#000000"> &#160;&#160;ecoMaxiNFT: IERC721</text>
<text text-anchor="start" x="8" y="-251.9" font-family="Times,serif" font-size="14.00" fill="#000000"> &#160;&#160;liqMaxiNFT: IERC721</text>
<text text-anchor="start" x="8" y="-235.1" font-family="Times,serif" font-size="14.00" fill="#000000"> &#160;&#160;magisterNFT: IERC721</text>
<text text-anchor="start" x="8" y="-218.3" font-family="Times,serif" font-size="14.00" fill="#000000"> &#160;&#160;x7dao: IERC20</text>
<polyline fill="none" stroke="#000000" points="0,-210.1 549.4784,-210.1 "/>
<text text-anchor="start" x="8" y="-193.5" font-family="Times,serif" font-size="14.00" fill="#000000">External:</text>
<text text-anchor="start" x="8" y="-176.7" font-family="Times,serif" font-size="14.00" fill="#000000"> &#160;&#160;&#160;setEcosystemMaxiNFT(tokenAddress: address)</text>
<text text-anchor="start" x="8" y="-159.9" font-family="Times,serif" font-size="14.00" fill="#000000"> &#160;&#160;&#160;setLiquidityMaxiNFT(tokenAddress: address)</text>
<text text-anchor="start" x="8" y="-143.1" font-family="Times,serif" font-size="14.00" fill="#000000"> &#160;&#160;&#160;setMagisterNFT(tokenAddress: address)</text>
<text text-anchor="start" x="8" y="-126.3" font-family="Times,serif" font-size="14.00" fill="#000000"> &#160;&#160;&#160;setX7DAO(tokenAddress: address)</text>
<text text-anchor="start" x="8" y="-109.5" font-family="Times,serif" font-size="14.00" fill="#000000"> &#160;&#160;&#160;discountRatio(swapper: address): (numerator: uint256, denominator: uint256)</text>
<text text-anchor="start" x="8" y="-92.7" font-family="Times,serif" font-size="14.00" fill="#000000">Public:</text>
<text text-anchor="start" x="8" y="-75.9" font-family="Times,serif" font-size="14.00" fill="#000000"> &#160;&#160;&#160;&lt;&lt;event&gt;&gt; EcosystemMaxiNFTSet(oldTokenAddress: address, newTokenAddress: address)</text>
<text text-anchor="start" x="8" y="-59.1" font-family="Times,serif" font-size="14.00" fill="#000000"> &#160;&#160;&#160;&lt;&lt;event&gt;&gt; LiquidityMaxiNFTSet(oldTokenAddress: address, newTokenAddress: address)</text>
<text text-anchor="start" x="8" y="-42.3" font-family="Times,serif" font-size="14.00" fill="#000000"> &#160;&#160;&#160;&lt;&lt;event&gt;&gt; MagisterNFTSet(oldTokenAddress: address, newTokenAddress: address)</text>
<text text-anchor="start" x="8" y="-25.5" font-family="Times,serif" font-size="14.00" fill="#000000"> &#160;&#160;&#160;&lt;&lt;event&gt;&gt; X7DAOTokenSet(oldTokenAddress: address, newTokenAddress: address)</text>
<text text-anchor="start" x="8" y="-8.7" font-family="Times,serif" font-size="14.00" fill="#000000"> &#160;&#160;&#160;constructor()</text>
</g>
<!-- 4&#45;&gt;0 -->
<g id="edge1" class="edge">
<title>4&#45;&gt;0</title>
<path fill="none" stroke="#000000" d="M274.7392,-327.1507C274.7392,-329.3626 274.7392,-331.5749 274.7392,-333.786"/>
<polygon fill="none" stroke="#000000" points="264.2393,-333.8384 274.7392,-363.8385 285.2393,-333.8385 264.2393,-333.8384"/>
</g>
<!-- 4&#45;&gt;1 -->
<g id="edge2" class="edge">
<title>4&#45;&gt;1</title>
<path fill="none" stroke="#000000" d="M484.2546,-327.0988C498.4627,-339.1848 512.414,-351.3603 525.7392,-363.4 549.5165,-384.8833 574.4083,-409.7883 595.7913,-432.0222"/>
<polygon fill="#000000" stroke="#000000" points="593.4587,-434.647 602.9017,-439.4512 598.5157,-429.8069 593.4587,-434.647"/>
</g>
<!-- 4&#45;&gt;2 -->
<g id="edge3" class="edge">
<title>4&#45;&gt;2</title>
<path fill="none" stroke="#000000" d="M549.4799,-324.005C552.57,-325.1685 555.657,-326.3009 558.7392,-327.4 652.0612,-360.679 690.8494,-317.6629 778.7392,-363.4 810.0772,-379.708 838.2883,-406.6237 860.1166,-431.7547"/>
<polygon fill="#000000" stroke="#000000" points="857.5404,-434.1281 866.6825,-439.483 862.8751,-429.5958 857.5404,-434.1281"/>
</g>
</g>
</svg>
